<?xml version="1.0" encoding="utf-8"?>
<!-- Generator: Adobe Illustrator 23.0.1, SVG Export Plug-In . SVG Version: 6.00 Build 0)  -->
<svg version="1.1" id="Layer_1" xmlns="http://www.w3.org/2000/svg" xmlns:xlink="http://www.w3.org/1999/xlink" x="0px" y="0px"
	 viewBox="0 0 42 50" style="enable-background:new 0 0 42 50;" xml:space="preserve">
<g>
	<path d="M21,2.163c-10.123,0-18.359,8.235-18.359,18.358c0,10.123,8.236,18.36,18.359,18.36c10.123,0,18.359-8.237,18.359-18.36
		C39.359,10.398,31.123,2.163,21,2.163z M21,36.837c-8.996,0-16.315-7.319-16.315-16.316c0-8.995,7.319-16.314,16.315-16.314
		c8.996,0,16.315,7.319,16.315,16.314C37.315,29.518,29.996,36.837,21,36.837z"/>
	<polygon points="19.712,12.727 19.712,12.358 19.712,12.318 14.085,12.318 14.085,12.727 14.623,12.727 14.623,27.889 
		14.085,27.889 14.085,28.298 20.251,28.298 20.251,27.889 19.712,27.889 	"/>
	<path d="M28.364,17.798c0-3.26-1.638-5.853-4.995-5.853c-0.411,0-0.79,0.078-1.158,0.193v0.134
		c0.911,0.127,1.063,1.382,1.063,2.393v13.224h-0.526v0.41h6.165v-0.41h-0.549V17.798z"/>
	<path d="M21,42.621c-1.44,0-2.608,1.168-2.608,2.608c0,1.441,1.168,2.608,2.608,2.608s2.608-1.167,2.608-2.608
		C23.608,43.789,22.44,42.621,21,42.621z"/>
</g>
</svg>
