<?xml version="1.0" encoding="utf-8"?>
<!-- Generator: Adobe Illustrator 23.0.1, SVG Export Plug-In . SVG Version: 6.00 Build 0)  -->
<svg version="1.1" id="Layer_1" xmlns="http://www.w3.org/2000/svg" xmlns:xlink="http://www.w3.org/1999/xlink" x="0px" y="0px"
	 viewBox="0 0 20 30" style="enable-background:new 0 0 20 30;" xml:space="preserve">
<g>
	<g>
		<path d="M11.859,27.512H7.45c-0.276,0-0.5-0.224-0.5-0.5V16.553H3.763c-0.276,0-0.5-0.224-0.5-0.5v-4.271
			c0-0.276,0.224-0.5,0.5-0.5H6.95V8.633c0-3.791,2.297-6.146,5.994-6.146c1.552,0,2.934,0.117,3.358,0.173
			c0.249,0.033,0.435,0.245,0.435,0.496v3.819c0,0.276-0.224,0.5-0.5,0.5l-2.26,0.001c-1.385,0-1.618,0.487-1.618,1.579v2.227h3.729
			c0.144,0,0.28,0.062,0.375,0.17c0.096,0.107,0.14,0.251,0.121,0.394l-0.549,4.271c-0.032,0.25-0.244,0.437-0.496,0.437h-3.18
			v10.459C12.359,27.289,12.135,27.512,11.859,27.512z M7.95,26.512h3.409V16.053c0-0.276,0.224-0.5,0.5-0.5h3.24l0.42-3.271h-3.66
			c-0.276,0-0.5-0.224-0.5-0.5V9.056c0-1.201,0.298-2.579,2.618-2.579l1.76-0.001V3.607c-0.608-0.055-1.648-0.119-2.793-0.119
			c-3.127,0-4.994,1.924-4.994,5.146v3.149c0,0.276-0.224,0.5-0.5,0.5H4.263v3.271H7.45c0.276,0,0.5,0.224,0.5,0.5V26.512z"/>
	</g>
</g>
</svg>
