<?xml version="1.0" encoding="utf-8"?>
<!-- Generator: Adobe Illustrator 23.0.1, SVG Export Plug-In . SVG Version: 6.00 Build 0)  -->
<svg version="1.1" id="Layer_1" xmlns="http://www.w3.org/2000/svg" xmlns:xlink="http://www.w3.org/1999/xlink" x="0px" y="0px"
	 viewBox="0 0 25 30" style="enable-background:new 0 0 25 30;" xml:space="preserve">
<g>
	<g>
		<path d="M7.465,27.512c-0.056,0-0.113-0.008-0.169-0.022c-0.264-0.068-0.459-0.288-0.498-0.56
			c-0.179-1.229-0.399-3.494,0.049-5.426l1.704-7.36c-0.136-0.341-0.407-1.155-0.407-2.229c0-2.283,1.366-4.072,3.11-4.072
			c1.392,0,2.327,1.033,2.327,2.571c0,0.878-0.33,1.968-0.68,3.12c-0.189,0.624-0.384,1.267-0.529,1.891
			c-0.123,0.527-0.021,1.031,0.285,1.418c0.316,0.397,0.813,0.625,1.364,0.625c2.126,0,3.792-3.003,3.792-6.836
			c0-2.954-1.967-4.789-5.132-4.789c-4.004,0-6.165,3.148-6.165,6.111c0,0.978,0.254,1.758,0.777,2.385
			c0.356,0.43,0.424,0.713,0.294,1.214c-0.044,0.166-0.12,0.473-0.184,0.734l-0.092,0.372c-0.082,0.312-0.266,0.552-0.52,0.677
			c-0.251,0.124-0.548,0.127-0.836,0.008c-1.929-0.804-3.081-2.948-3.081-5.736c0-4.482,3.806-9.119,10.176-9.119
			c5.678,0,9.071,4.274,9.071,8.406c0,5.769-3.283,9.956-7.805,9.956c-1.129,0-2.287-0.45-3.061-1.131
			c-0.247,0.991-0.608,2.441-0.714,2.836c-0.529,1.949-1.926,3.901-2.502,4.65C7.887,27.408,7.679,27.512,7.465,27.512z
			 M7.78,26.734C7.78,26.734,7.78,26.735,7.78,26.734C7.78,26.735,7.78,26.734,7.78,26.734z M7.22,26.633
			c-0.001,0.001-0.002,0.003-0.003,0.004C7.217,26.636,7.219,26.634,7.22,26.633z M11.254,8.842c-1.183,0-2.11,1.35-2.11,3.072
			c0,1.158,0.377,1.957,0.38,1.965c0.049,0.103,0.063,0.22,0.038,0.331l-1.741,7.52c-0.261,1.125-0.307,2.649-0.134,4.268
			c0.64-0.909,1.516-2.321,1.891-3.704c0.166-0.612,0.949-3.783,0.949-3.783c0.05-0.202,0.22-0.353,0.428-0.377
			c0.202-0.022,0.408,0.083,0.502,0.269c0.365,0.712,1.535,1.448,2.861,1.448c4.007,0,6.805-3.683,6.805-8.956
			c0-3.641-3.019-7.406-8.071-7.406c-3.81,0-9.176,2.519-9.176,8.119c0,2.371,0.921,4.17,2.465,4.812l0.092-0.371
			c0.066-0.27,0.144-0.586,0.188-0.751c0.029-0.111,0.028-0.146,0.028-0.151c-0.002-0.003-0.021-0.043-0.125-0.168
			c-0.678-0.813-1.008-1.803-1.008-3.024c0-4.054,3.08-7.111,7.165-7.111c3.725,0,6.132,2.272,6.132,5.789
			c0,4.467-2.06,7.836-4.792,7.836c-0.858,0-1.641-0.366-2.147-1.004c-0.5-0.63-0.67-1.435-0.476-2.266
			c0.151-0.65,0.352-1.313,0.546-1.954c0.328-1.08,0.637-2.101,0.637-2.83C12.582,10.045,12.486,8.842,11.254,8.842z"/>
	</g>
</g>
</svg>
