<?xml version="1.0" encoding="utf-8"?>
<!-- Generator: Adobe Illustrator 23.0.1, SVG Export Plug-In . SVG Version: 6.00 Build 0)  -->
<svg version="1.1" id="Layer_1" xmlns="http://www.w3.org/2000/svg" xmlns:xlink="http://www.w3.org/1999/xlink" x="0px" y="0px"
	 viewBox="0 0 30 30" style="enable-background:new 0 0 30 30;" xml:space="preserve">
<g>
	<g>
		<path d="M20.275,27.512H9.726c-3.991,0-7.238-3.246-7.238-7.236V9.726c0-3.99,3.247-7.237,7.238-7.237h10.549
			c3.99,0,7.237,3.247,7.237,7.237v10.55C27.512,24.266,24.265,27.512,20.275,27.512z M9.726,3.488c-3.44,0-6.238,2.798-6.238,6.237
			v10.55c0,3.438,2.798,6.236,6.238,6.236h10.549c3.439,0,6.237-2.798,6.237-6.236V9.726c0-3.439-2.798-6.237-6.237-6.237H9.726z
			 M15.192,21.937c-3.799,0-6.89-3.091-6.89-6.891c0-3.799,3.091-6.889,6.89-6.889c3.799,0,6.89,3.09,6.89,6.889
			C22.082,18.846,18.991,21.937,15.192,21.937z M15.192,9.157c-3.248,0-5.89,2.642-5.89,5.889c0,3.248,2.642,5.891,5.89,5.891
			c3.248,0,5.89-2.643,5.89-5.891C21.082,11.799,18.439,9.157,15.192,9.157z M21.998,9.058c-1.013,0-1.836-0.824-1.836-1.838
			c0-1.013,0.824-1.836,1.836-1.836s1.836,0.823,1.836,1.836C23.833,8.233,23.01,9.058,21.998,9.058z M21.998,6.384
			c-0.461,0-0.837,0.375-0.837,0.836c0,0.462,0.376,0.838,0.837,0.838s0.836-0.376,0.836-0.838
			C22.833,6.759,22.458,6.384,21.998,6.384z"/>
	</g>
</g>
</svg>
